<svg xmlns="http://www.w3.org/2000/svg" data-name="Layer 1" viewBox="0 0 512 512" id="easy-return"><path d="M214.456 364.742a12.4 12.4 0 0 0 7.12-11.283v-14.803h85.075a7.808 7.808 0 0 1 7.915 7.128 7.5 7.5 0 0 1-7.49 7.872h-58a12.514 12.514 0 0 0-12.5 12.5v25a12.514 12.514 0 0 0 12.5 12.5h58a57.5 57.5 0 0 0 0-115h-85.5v-14.802a12.5 12.5 0 0 0-20.367-9.714l-49.151 39.802a12.501 12.501 0 0 0 0 19.428l49.15 39.803a12.407 12.407 0 0 0 13.248 1.57Zm-7.88-85.647v12.061a12.514 12.514 0 0 0 12.5 12.5h88a42.5 42.5 0 0 1 0 85h-55.5v-20h55.5a22.604 22.604 0 0 0 16.28-6.97 22.314 22.314 0 0 0 6.193-16.608 22.684 22.684 0 0 0-22.898-21.422h-87.576a12.514 12.514 0 0 0-12.5 12.5v12.062l-42.678-34.562ZM482 168h12.514A17.507 17.507 0 0 0 512 150.514V81.486A17.507 17.507 0 0 0 494.514 64H17.486A17.507 17.507 0 0 0 0 81.486v69.028A17.507 17.507 0 0 0 17.486 168H30v306.5a37.302 37.302 0 0 0 7.52 22.5H7.5a7.5 7.5 0 0 0 0 15h497a7.5 7.5 0 0 0 0-15h-30.02a37.302 37.302 0 0 0 7.52-22.5ZM188.979 79h134.043v74H188.979ZM17.486 153A2.489 2.489 0 0 1 15 150.514V81.486A2.489 2.489 0 0 1 17.486 79H173.98v74ZM467 474.5a22.526 22.526 0 0 1-22.5 22.5h-377A22.526 22.526 0 0 1 45 474.5V168h422ZM338.021 153V79h156.493A2.489 2.489 0 0 1 497 81.486v69.028a2.489 2.489 0 0 1-2.486 2.486ZM256 477.5c79.953 0 145-65.047 145-145s-65.047-145-145-145-145 65.047-145 145 65.047 145 145 145Zm0-275a130 130 0 1 1-130 130 130.147 130.147 0 0 1 130-130Z"></path></svg>